<svg width="39" height="35" viewBox="0 0 39 35" fill="none" xmlns="http://www.w3.org/2000/svg">
<path d="M34.9159 30.7746L33.5684 29.1159C34.278 28.9469 34.7109 28.5255 34.7109 27.7924C34.7109 26.9641 34.0324 26.5491 33.1731 26.5491H30.4801V30.7746H31.1941V29.1758H32.7958L34.0297 30.7746H34.9159ZM31.1941 27.205H33.1929C33.6851 27.205 33.9791 27.4439 33.9791 27.844C33.9791 28.2547 33.6705 28.5201 33.1929 28.5201H31.1941V27.205Z" fill="#050033"/>
<path d="M6.19039 26.5491L4.08411 30.7746H4.89183L5.34109 29.8335H7.73975L8.18902 30.7746H9.01515L6.90886 26.5491H6.19039ZM5.65425 29.1778L6.54047 27.3215L7.42669 29.1778H5.65425Z" fill="#050033"/>
<path d="M12.7925 27.1049C13.464 27.1049 14.0177 27.3671 14.3015 27.8274L14.8775 27.4267C14.4743 26.8416 13.7608 26.437 12.7925 26.437C11.2273 26.437 10.3282 27.4941 10.3282 28.6619C10.3282 29.8297 11.2273 30.8868 12.7925 30.8868C13.7609 30.8868 14.4743 30.4824 14.8775 29.8973L14.3015 29.4966C14.0177 29.9569 13.464 30.2189 12.7925 30.2189C11.7402 30.2189 11.0603 29.6077 11.0603 28.662C11.0603 27.7162 11.7402 27.1049 12.7925 27.1049Z" fill="#050033"/>
<path d="M19.2776 27.1049C19.9491 27.1049 20.5027 27.3671 20.7866 27.8274L21.3625 27.4267C20.9593 26.8416 20.2458 26.437 19.2776 26.437C17.7124 26.437 16.8132 27.4941 16.8132 28.6619C16.8132 29.8297 17.7124 30.8868 19.2776 30.8868C20.2459 30.8868 20.9593 30.4824 21.3625 29.8973L20.7866 29.4966C20.5027 29.9569 19.9491 30.2189 19.2776 30.2189C18.2252 30.2189 17.5454 29.6077 17.5454 28.662C17.5454 27.7162 18.2252 27.1049 19.2776 27.1049Z" fill="#050033"/>
<path d="M25.7635 26.437C24.1983 26.437 23.2991 27.4941 23.2991 28.6619C23.2991 29.8297 24.1983 30.8867 25.7635 30.8867C27.3286 30.8867 28.2278 29.8297 28.2278 28.6619C28.2278 27.4941 27.3286 26.437 25.7635 26.437ZM25.7635 30.2261C24.7111 30.2261 24.0313 29.6121 24.0313 28.6619C24.0313 27.7116 24.7111 27.0976 25.7635 27.0976C26.8158 27.0976 27.4957 27.7117 27.4957 28.6619C27.4957 29.612 26.8158 30.2261 25.7635 30.2261Z" fill="#050033"/>
<path d="M28.0948 23.048H25.4605C24.3503 23.048 23.7916 22.7957 23.3846 22.2458C22.9509 21.66 22.9509 20.7675 22.9509 19.9218V4.22543H26.3376V20.4254C26.3376 21.7078 26.4766 22.6256 28.0949 22.9913V23.0481L28.0948 23.048Z" fill="#050033"/>
<path d="M21.064 23.2029H16.8259L13.7105 16.4858C12.0101 17.4423 11.04 19.6572 9.31562 21.1201C8.43705 21.8654 7.40873 22.53 6.12723 22.9795C5.54714 23.1829 4.56163 23.446 4.19066 23.4841C4.03584 23.5 3.92683 23.4935 3.90377 23.4356C3.88598 23.3909 3.92869 23.3567 4.09386 23.2742C4.28219 23.18 5.06044 22.8468 5.54807 22.4951C6.15681 22.0562 6.50555 21.5813 6.53296 21.2151C6.36541 20.6046 5.17337 19.2497 6.39282 16.7636C6.8304 15.8715 7.20882 15.2295 7.47988 14.5843C7.79129 13.8431 8.01158 12.799 8.08656 12.023C8.0909 11.9778 8.09876 11.98 8.12265 12.0052C8.7165 12.6262 11.0179 15.0779 10.6852 17.5149C11.4505 17.2107 12.7777 16.2871 13.3897 15.7941C14.0357 15.2739 14.4567 14.7311 15.141 14.719C15.7537 14.7082 15.8065 15.0112 16.2945 15.0779C16.4154 15.0944 16.5943 15.0701 16.6868 15.0232C16.7243 15.0043 16.7151 14.9619 16.6585 14.9481C15.9929 14.7857 15.8336 14.2246 14.9733 14.2246C14.2017 14.2246 13.5875 14.9596 13.1426 15.2615L10.9663 10.5691C10.0561 8.60663 10.334 7.18043 12.3317 4.375L21.064 23.2029Z" fill="#050033"/>
<path d="M34.916 23.048H32.2816C31.1715 23.048 30.6128 22.7957 30.2057 22.2458C29.7721 21.66 29.7721 20.7675 29.7721 19.9218V4.22543H33.1587V20.4254C33.1587 21.7078 33.2977 22.6256 34.9161 22.9913V23.0481L34.916 23.048Z" fill="#050033"/>
</svg>
